<?xml version="1.0" encoding="UTF-8" standalone="no"?>
<svg
   id="svg"
   fill="#ffffff"
   stroke="#ffffff"
   width="149.739"
   height="149.739"
   version="1.1"
   viewBox="144 144 383.33184 383.33184"
   sodipodi:docname="splash.svg"
   inkscape:version="1.4.2 (f4327f4, 2025-05-13)"
   inkscape:export-filename="splash.png"
   inkscape:export-xdpi="192.33467"
   inkscape:export-ydpi="192.33467"
   xmlns:inkscape="http://www.inkscape.org/namespaces/inkscape"
   xmlns:sodipodi="http://sodipodi.sourceforge.net/DTD/sodipodi-0.dtd"
   xmlns="http://www.w3.org/2000/svg"
   xmlns:svg="http://www.w3.org/2000/svg">
  <defs
     id="defs12" />
  <sodipodi:namedview
     id="namedview12"
     pagecolor="#ffffff"
     bordercolor="#000000"
     borderopacity="0.25"
     inkscape:showpageshadow="2"
     inkscape:pageopacity="0.0"
     inkscape:pagecheckerboard="true"
     inkscape:deskcolor="#d1d1d1"
     inkscape:zoom="4.255"
     inkscape:cx="74.618096"
     inkscape:cy="96.709753"
     inkscape:window-width="1920"
     inkscape:window-height="1111"
     inkscape:window-x="-9"
     inkscape:window-y="-9"
     inkscape:window-maximized="1"
     inkscape:current-layer="svg" />
  <g
     id="IconSvg_bgCarrier"
     stroke-width="0"
     transform="translate(-64.868948,-157.61974)" />
  <g
     id="IconSvg_tracerCarrier"
     stroke-linecap="round"
     stroke-linejoin="round"
     stroke="#cccccc"
     stroke-width="0"
     transform="translate(-64.868948,-65.44908)">
    <g
       id="g6">
      <path
         d="m 300.35,465.65 c 18.914,6.9922 46.09,4.4219 59.219,3.0898 48.609,-4.9219 93.266,-22.602 105.58,-27.562 16.48,-6.6367 72.27,-30.305 100.15,-62.922 29.988,-35.086 4.7539,-53.699 -0.73438,-57.75 -32.488,-23.969 -107.63,-14.227 -119.19,-12.641 9.2656,-1.6641 93.59,-16.168 130.43,8.5039 5.2031,3.4844 32.719,23.328 0.51172,61.172 -30.898,36.309 -93.574,61.934 -107.27,67.531 -16.809,6.8711 -61.883,24.996 -111.11,30.113 -12.219,1.2695 -43.445,4.3008 -64.395,-4.0703 -2.9219,-1.168 -16.516,-6.9531 -18.324,-19.801 -1.6602,-11.812 7.418,-24.141 8.6758,-24.387 1.1953,-0.23438 -5.5312,10.602 -1.5586,21.84 1.3281,3.7305 4.3164,11.816 18.016,16.883 z"
         id="path1" />
      <path
         d="m 515.86,401.02 c -25.363,20.023 -58.285,33.168 -67.145,36.551 -4.6562,1.8164 -13.402,5.0586 -24.797,8.4609 -6.4414,2.0234 -13.68,4.0352 -21.555,5.8828 -14.711,3.4688 -31.453,6.3711 -48.398,7.1719 -11.207,0.53906 -46.707,2.2344 -58.34,-11.699 -13.57,-16.168 12.219,-45.062 46.031,-61.352 3.668,-1.7617 7.3789,-3.3828 10.996,-4.8125 -1.3086,3.1719 -2.2812,6.3984 -2.9023,9.7227 -23.684,13.078 -47.258,36.18 -36.504,50.184 9.1055,11.836 38.031,10.934 47.723,10.621 7.9062,-0.26953 15.754,-1.0508 23.363,-2.2305 4.8984,-0.73047 9.6875,-1.6367 14.301,-2.5938 9.1172,-1.9297 17.551,-4.1719 24.793,-6.3438 5.3047,-1.6016 9.8945,-3.1328 13.668,-4.4023 3.1328,-1.1172 5.6445,-2.0312 7.4844,-2.7266 33.68,-12.434 54.777,-26.641 62.785,-32.5 38.137,-27.684 36.363,-50.453 38.039,-50.996 1.6992,-0.33594 6.918,22.277 -29.543,51.062 z"
         id="path2" />
      <path
         d="m 500.72,336.58 c -18.914,-6.9922 -46.09,-4.4219 -59.219,-3.0898 -48.609,4.9219 -93.266,22.602 -105.58,27.562 -16.48,6.6367 -72.27,30.305 -100.15,62.922 -29.988,35.086 -4.7539,53.699 0.73438,57.75 32.488,23.969 107.63,14.227 119.19,12.641 -9.2656,1.6641 -93.59,16.168 -130.43,-8.5039 -5.2031,-3.4844 -32.719,-23.328 -0.51172,-61.172 30.898,-36.309 93.574,-61.934 107.27,-67.531 16.809,-6.8711 61.883,-24.996 111.11,-30.113 12.219,-1.2695 43.445,-4.3008 64.395,4.0703 2.9219,1.168 16.516,6.9531 18.324,19.801 1.6602,11.812 -7.418,24.141 -8.6758,24.387 -1.1953,0.23438 5.5312,-10.602 1.5586,-21.84 -1.3281,-3.7344 -4.3164,-11.82 -18.016,-16.883 z"
         id="path3" />
      <path
         d="m 388.64,433.47 -0.46094,1.5234 0.99219,1.1094 c 2.8984,3.2461 29.426,-2.8086 29.664,-2.8828 0.35156,-0.0586 3.9453,-0.89844 9.3945,-2.5508 -4.3594,4.2109 -9.6484,7.3438 -15.598,9.2578 -10.453,3.3672 -21.598,2.457 -31.41,-2.5352 -9.7773,-5.0547 -17.02,-13.574 -20.387,-24.027 -3.043,-9.4492 -2.6211,-19.48 1.2305,-28.555 0.375,-0.96875 0.81641,-1.9023 1.3047,-2.8555 1.1055,-2.1562 2.3672,-4.1484 3.7891,-5.9844 5.1836,-6.9102 12.324,-11.855 20.191,-14.391 1.4062,-0.39844 2.7656,-0.78516 4.1055,-1.0586 8.9414,-1.9805 18.602,-0.91016 27.352,3.5781 9.8125,4.9922 17.07,13.559 20.438,24.012 2.8281,8.7773 2.6367,18.047 -0.52734,26.633 -12.535,5.7852 -23.711,9.543 -23.805,9.5703 -7.3555,2.4727 -13.473,4.1797 -17.949,5.4102 -6.6641,1.832 -7.6875,2.1094 -8.3242,3.7461 z"
         id="path4" />
      <path
         d="m 372.17,357.68 c -2.2461,1.4102 -4.2227,3 -6.1992,4.75 -0.20703,0.17188 -0.41797,0.34766 -0.57812,0.50391 -0.0469,0.0156 -0.0469,0.0156 -0.0977,0.0312 -1.2891,1.2617 -2.5586,2.5703 -3.6875,3.9922 -0.0625,-0.0312 -0.11328,-0.0156 -0.14453,0.0469 -2.0156,0.64844 -3.6602,1.2852 -4.9414,1.75 -33.73,12.449 -54.762,26.688 -62.836,32.516 -38.137,27.684 -36.363,50.453 -37.992,50.98 -1.6914,0.33203 -6.9453,-22.219 29.551,-51.066 25.312,-20.008 58.238,-33.152 67.145,-36.551 3.9531,-1.5391 10.863,-4.082 19.781,-6.9531 z"
         id="path5" />
      <path
         d="m 459.39,416.18 c -4.2109,2.043 -8.5312,3.9141 -12.625,5.4961 -2.3984,0.93359 -4.75,1.8477 -6.9883,2.6211 -2.8633,0.97656 -5.5781,1.9023 -8.0273,2.6914 l -0.0469,0.0156 c -8.0234,2.5312 -13.453,3.75 -13.453,3.75 -14.23,3.3125 -27.594,4.5469 -27.219,3.5781 0.29688,-0.89063 10.48001,-2.793 24.695,-7.6367 0,0 9.8477,-3.2773 21.54701,-8.5273 2.1289,-0.94922 4.3867,-1.9961 6.6445,-3.0391 1.1836,-0.59375 2.418,-1.2031 3.6523,-1.8125 0.81641,-0.42187 1.6797,-0.85937 2.5,-1.2812 l -0.0156,-0.0469 c 1.7148,-0.92188 3.4141,-1.8945 5.1445,-2.9258 1.7305,-1.0352 3.3984,-2.1016 5.0977,-3.2305 l 0.0469,-0.0156 c 3.3672,-2.1953 6.5781,-4.5547 9.63279,-7.0703 0.12891,-0.0937 0.25781,-0.1875 0.38673,-0.28125 2.29689,-1.9062 4.5156,-3.8906 6.5273,-5.8594 1.6094,-1.5781 3.1562,-3.1875 4.4922,-4.7812 0.46875,-0.51953 0.93359,-1.043 1.3398,-1.5938 3.9844,-4.8828 6.6797,-9.8281 7.4766,-14.422 0.082,-0.39844 0.12109,-0.78125 0.15625,-1.1602 0.12109,-0.9375 0.14453,-1.8477 0.0586,-2.7734 -0.0273,-0.41406 -0.0547,-0.82812 -0.17969,-1.2109 -0.31641,-1.9648 -1.0781,-3.8359 -2.4297,-5.5703 -9.0586,-11.852 -38.031,-10.934 -47.676,-10.633 -1.625,0.0469 -3.2852,0.15625 -4.8945,0.25391 -1.6094,0.0937 -3.1719,0.17578 -4.75,0.36719 -0.78125,0.0391 -1.6094,0.0937 -2.375,0.18359 -1.4336,0.14453 -2.8711,0.28906 -4.2891,0.48047 -2.1367,0.26562 -4.2266,0.51562 -6.2852,0.85938 -0.0625,-0.0312 -0.11328,-0.0156 -0.11328,-0.0156 -1.8555,-0.67188 -3.6367,-1.2617 -5.5117,-1.6641 -0.0469,0.0156 -0.11328,-0.0156 -0.11328,-0.0156 -0.63672,-0.16406 -1.1602,-0.31641 -1.8281,-0.41797 -0.0625,-0.0312 -0.10938,-0.0156 -0.10938,-0.0156 -2.6094,-0.53516 -5.1875,-0.81641 -7.8125,-0.92578 13.863,-3.1406 29.355,-5.6445 45.043,-6.4102 11.207,-0.53906 46.707,-2.2344 58.387,11.684 13.516,16.172 -12.27,45.066 -46.086,61.355 z"
         id="path6" />
    </g>
  </g>
  <g
     id="IconSvg_iconCarrier"
     transform="translate(-64.868948,-65.44908)">
    <g
       id="g12">
      <path
         d="m 300.35,465.65 c 18.914,6.9922 46.09,4.4219 59.219,3.0898 48.609,-4.9219 93.266,-22.602 105.58,-27.562 16.48,-6.6367 72.27,-30.305 100.15,-62.922 29.988,-35.086 4.7539,-53.699 -0.73438,-57.75 -32.488,-23.969 -107.63,-14.227 -119.19,-12.641 9.2656,-1.6641 93.59,-16.168 130.43,8.5039 5.2031,3.4844 32.719,23.328 0.51172,61.172 -30.898,36.309 -93.574,61.934 -107.27,67.531 -16.809,6.8711 -61.883,24.996 -111.11,30.113 -12.219,1.2695 -43.445,4.3008 -64.395,-4.0703 -2.9219,-1.168 -16.516,-6.9531 -18.324,-19.801 -1.6602,-11.812 7.418,-24.141 8.6758,-24.387 1.1953,-0.23438 -5.5312,10.602 -1.5586,21.84 1.3281,3.7305 4.3164,11.816 18.016,16.883 z"
         id="path7" />
      <path
         d="m 515.86,401.02 c -25.363,20.023 -58.285,33.168 -67.145,36.551 -4.6562,1.8164 -13.402,5.0586 -24.797,8.4609 -6.4414,2.0234 -13.68,4.0352 -21.555,5.8828 -14.711,3.4688 -31.453,6.3711 -48.398,7.1719 -11.207,0.53906 -46.707,2.2344 -58.34,-11.699 -13.57,-16.168 12.219,-45.062 46.031,-61.352 3.668,-1.7617 7.3789,-3.3828 10.996,-4.8125 -1.3086,3.1719 -2.2812,6.3984 -2.9023,9.7227 -23.684,13.078 -47.258,36.18 -36.504,50.184 9.1055,11.836 38.031,10.934 47.723,10.621 7.9062,-0.26953 15.754,-1.0508 23.363,-2.2305 4.8984,-0.73047 9.6875,-1.6367 14.301,-2.5938 9.1172,-1.9297 17.551,-4.1719 24.793,-6.3438 5.3047,-1.6016 9.8945,-3.1328 13.668,-4.4023 3.1328,-1.1172 5.6445,-2.0312 7.4844,-2.7266 33.68,-12.434 54.777,-26.641 62.785,-32.5 38.137,-27.684 36.363,-50.453 38.039,-50.996 1.6992,-0.33594 6.918,22.277 -29.543,51.062 z"
         id="path8" />
      <path
         d="m 500.72,336.58 c -18.914,-6.9922 -46.09,-4.4219 -59.219,-3.0898 -48.609,4.9219 -93.266,22.602 -105.58,27.562 -16.48,6.6367 -72.27,30.305 -100.15,62.922 -29.988,35.086 -4.7539,53.699 0.73438,57.75 32.488,23.969 107.63,14.227 119.19,12.641 -9.2656,1.6641 -93.59,16.168 -130.43,-8.5039 -5.2031,-3.4844 -32.719,-23.328 -0.51172,-61.172 30.898,-36.309 93.574,-61.934 107.27,-67.531 16.809,-6.8711 61.883,-24.996 111.11,-30.113 12.219,-1.2695 43.445,-4.3008 64.395,4.0703 2.9219,1.168 16.516,6.9531 18.324,19.801 1.6602,11.812 -7.418,24.141 -8.6758,24.387 -1.1953,0.23438 5.5312,-10.602 1.5586,-21.84 -1.3281,-3.7344 -4.3164,-11.82 -18.016,-16.883 z"
         id="path9" />
      <path
         d="m 388.64,433.47 -0.46094,1.5234 0.99219,1.1094 c 2.8984,3.2461 29.426,-2.8086 29.664,-2.8828 0.35156,-0.0586 3.9453,-0.89844 9.3945,-2.5508 -4.3594,4.2109 -9.6484,7.3438 -15.598,9.2578 -10.453,3.3672 -21.598,2.457 -31.41,-2.5352 -9.7773,-5.0547 -17.02,-13.574 -20.387,-24.027 -3.043,-9.4492 -2.6211,-19.48 1.2305,-28.555 0.375,-0.96875 0.81641,-1.9023 1.3047,-2.8555 1.1055,-2.1562 2.3672,-4.1484 3.7891,-5.9844 5.1836,-6.9102 12.324,-11.855 20.191,-14.391 1.4062,-0.39844 2.7656,-0.78516 4.1055,-1.0586 8.9414,-1.9805 18.602,-0.91016 27.352,3.5781 9.8125,4.9922 17.07,13.559 20.438,24.012 2.8281,8.7773 2.6367,18.047 -0.52734,26.633 -12.535,5.7852 -23.711,9.543 -23.805,9.5703 -7.3555,2.4727 -13.473,4.1797 -17.949,5.4102 -6.6641,1.832 -7.6875,2.1094 -8.3242,3.7461 z"
         id="path10" />
      <path
         d="m 372.17,357.68 c -2.2461,1.4102 -4.2227,3 -6.1992,4.75 -0.20703,0.17188 -0.41797,0.34766 -0.57812,0.50391 -0.0469,0.0156 -0.0469,0.0156 -0.0977,0.0312 -1.2891,1.2617 -2.5586,2.5703 -3.6875,3.9922 -0.0625,-0.0312 -0.11328,-0.0156 -0.14453,0.0469 -2.0156,0.64844 -3.6602,1.2852 -4.9414,1.75 -33.73,12.449 -54.762,26.688 -62.836,32.516 -38.137,27.684 -36.363,50.453 -37.992,50.98 -1.6914,0.33203 -6.9453,-22.219 29.551,-51.066 25.312,-20.008 58.238,-33.152 67.145,-36.551 3.9531,-1.5391 10.863,-4.082 19.781,-6.9531 z"
         id="path11" />
      <path
         d="m 459.39,416.18 c -4.2109,2.043 -8.5312,3.9141 -12.625,5.4961 -2.3984,0.93359 -4.75,1.8477 -6.9883,2.6211 -2.8633,0.97656 -5.5781,1.9023 -8.0273,2.6914 l -0.0469,0.0156 c -8.0234,2.5312 -13.453,3.75 -13.453,3.75 -14.23,3.3125 -27.594,4.5469 -27.219,3.5781 0.29688,-0.89063 10.48001,-2.793 24.695,-7.6367 0,0 9.8477,-3.2773 21.54701,-8.5273 2.1289,-0.94922 4.3867,-1.9961 6.6445,-3.0391 1.1836,-0.59375 2.418,-1.2031 3.6523,-1.8125 0.81641,-0.42187 1.6797,-0.85937 2.5,-1.2812 l -0.0156,-0.0469 c 1.7148,-0.92188 3.4141,-1.8945 5.1445,-2.9258 1.7305,-1.0352 3.3984,-2.1016 5.0977,-3.2305 l 0.0469,-0.0156 c 3.3672,-2.1953 6.5781,-4.5547 9.63279,-7.0703 0.12891,-0.0937 0.25781,-0.1875 0.38673,-0.28125 2.29689,-1.9062 4.5156,-3.8906 6.5273,-5.8594 1.6094,-1.5781 3.1562,-3.1875 4.4922,-4.7812 0.46875,-0.51953 0.93359,-1.043 1.3398,-1.5938 3.9844,-4.8828 6.6797,-9.8281 7.4766,-14.422 0.082,-0.39844 0.12109,-0.78125 0.15625,-1.1602 0.12109,-0.9375 0.14453,-1.8477 0.0586,-2.7734 -0.0273,-0.41406 -0.0547,-0.82812 -0.17969,-1.2109 -0.31641,-1.9648 -1.0781,-3.8359 -2.4297,-5.5703 -9.0586,-11.852 -38.031,-10.934 -47.676,-10.633 -1.625,0.0469 -3.2852,0.15625 -4.8945,0.25391 -1.6094,0.0937 -3.1719,0.17578 -4.75,0.36719 -0.78125,0.0391 -1.6094,0.0937 -2.375,0.18359 -1.4336,0.14453 -2.8711,0.28906 -4.2891,0.48047 -2.1367,0.26562 -4.2266,0.51562 -6.2852,0.85938 -0.0625,-0.0312 -0.11328,-0.0156 -0.11328,-0.0156 -1.8555,-0.67188 -3.6367,-1.2617 -5.5117,-1.6641 -0.0469,0.0156 -0.11328,-0.0156 -0.11328,-0.0156 -0.63672,-0.16406 -1.1602,-0.31641 -1.8281,-0.41797 -0.0625,-0.0312 -0.10938,-0.0156 -0.10938,-0.0156 -2.6094,-0.53516 -5.1875,-0.81641 -7.8125,-0.92578 13.863,-3.1406 29.355,-5.6445 45.043,-6.4102 11.207,-0.53906 46.707,-2.2344 58.387,11.684 13.516,16.172 -12.27,45.066 -46.086,61.355 z"
         id="path12" />
    </g>
  </g>
</svg>
